<?xml version="1.0" encoding="UTF-8" standalone="no"?>
<!DOCTYPE svg PUBLIC "-//W3C//DTD SVG 1.1//EN" "http://www.w3.org/Graphics/SVG/1.1/DTD/svg11.dtd">
<svg width="100%" height="100%" viewBox="0 0 64 64" version="1.1" xmlns="http://www.w3.org/2000/svg" xmlns:xlink="http://www.w3.org/1999/xlink" xml:space="preserve" xmlns:serif="http://www.serif.com/" style="fill-rule:evenodd;clip-rule:evenodd;stroke-linejoin:round;stroke-miterlimit:2;">
    <g>
        <rect x="12.796" y="1.5" width="4.519" height="4.519" style="fill:rgb(10,175,115);"/>
        <rect x="18.444" y="1.5" width="4.519" height="4.519" style="fill:rgb(10,175,115);"/>
        <rect x="24.093" y="1.5" width="4.519" height="4.519" style="fill:rgb(10,175,115);"/>
        <rect x="29.741" y="1.5" width="4.519" height="4.519" style="fill:rgb(10,175,115);"/>
        <rect x="35.389" y="1.5" width="4.519" height="4.519" style="fill:rgb(10,175,115);"/>
        <rect x="41.037" y="1.5" width="4.519" height="4.519" style="fill:rgb(10,175,115);"/>
        <rect x="12.796" y="7.148" width="4.519" height="4.519" style="fill:rgb(10,175,115);"/>
        <rect x="7.148" y="7.148" width="4.519" height="4.519" style="fill:rgb(10,175,115);"/>
        <rect x="18.444" y="7.148" width="4.519" height="4.519" style="fill:rgb(10,175,115);"/>
        <rect x="24.093" y="7.148" width="4.519" height="4.519" style="fill:rgb(10,175,115);"/>
        <rect x="29.741" y="7.148" width="4.519" height="4.519" style="fill:rgb(10,175,115);"/>
        <rect x="35.389" y="7.148" width="4.519" height="4.519" style="fill:rgb(10,175,115);"/>
        <rect x="18.444" y="52.333" width="4.519" height="4.519" style="fill:rgb(10,175,115);"/>
        <rect x="24.093" y="52.333" width="4.519" height="4.519" style="fill:rgb(10,175,115);"/>
        <rect x="29.741" y="52.333" width="4.519" height="4.519" style="fill:rgb(10,175,115);"/>
        <rect x="35.389" y="52.333" width="4.519" height="4.519" style="fill:rgb(10,175,115);"/>
        <rect x="18.444" y="57.981" width="4.519" height="4.519" style="fill:rgb(10,175,115);"/>
        <rect x="24.093" y="57.981" width="4.519" height="4.519" style="fill:rgb(10,175,115);"/>
        <rect x="29.741" y="57.981" width="4.519" height="4.519" style="fill:rgb(10,175,115);"/>
        <rect x="35.389" y="57.981" width="4.519" height="4.519" style="fill:rgb(10,175,115);"/>
        <rect x="35.389" y="41.037" width="4.519" height="4.519" style="fill:rgb(10,175,115);"/>
        <rect x="35.389" y="35.389" width="4.519" height="4.519" style="fill:rgb(10,175,115);"/>
        <rect x="35.389" y="46.685" width="4.519" height="4.519" style="fill:rgb(10,175,115);"/>
        <rect x="29.741" y="35.389" width="4.519" height="4.519" style="fill:rgb(10,175,115);"/>
        <rect x="29.741" y="29.741" width="4.519" height="4.519" style="fill:rgb(10,175,115);"/>
        <rect x="29.741" y="41.037" width="4.519" height="4.519" style="fill:rgb(10,175,115);"/>
        <rect x="41.037" y="7.148" width="4.519" height="4.519" style="fill:rgb(10,175,115);"/>
        <rect x="46.685" y="7.148" width="4.519" height="4.519" style="fill:rgb(10,175,115);"/>
        <rect x="12.796" y="12.796" width="4.519" height="4.519" style="fill:rgb(10,175,115);"/>
        <rect x="7.148" y="12.796" width="4.519" height="4.519" style="fill:rgb(10,175,115);"/>
        <rect x="41.037" y="12.796" width="4.519" height="4.519" style="fill:rgb(10,175,115);"/>
        <rect x="46.685" y="12.796" width="4.519" height="4.519" style="fill:rgb(10,175,115);"/>
        <rect x="12.796" y="18.444" width="4.519" height="4.519" style="fill:rgb(10,175,115);"/>
        <rect x="7.148" y="18.444" width="4.519" height="4.519" style="fill:rgb(10,175,115);"/>
        <rect x="41.037" y="18.444" width="4.519" height="4.519" style="fill:rgb(10,175,115);"/>
        <rect x="46.685" y="18.444" width="4.519" height="4.519" style="fill:rgb(10,175,115);"/>
        <rect x="12.796" y="24.093" width="4.519" height="4.519" style="fill:rgb(10,175,115);"/>
        <rect x="7.148" y="24.093" width="4.519" height="4.519" style="fill:rgb(10,175,115);"/>
        <rect x="41.037" y="24.093" width="4.519" height="4.519" style="fill:rgb(10,175,115);"/>
        <rect x="46.685" y="24.093" width="4.519" height="4.519" style="fill:rgb(10,175,115);"/>
        <rect x="12.796" y="29.741" width="4.519" height="4.519" style="fill:rgb(10,175,115);"/>
        <rect x="7.148" y="29.741" width="4.519" height="4.519" style="fill:rgb(10,175,115);"/>
        <rect x="41.037" y="29.741" width="4.519" height="4.519" style="fill:rgb(10,175,115);"/>
        <rect x="46.685" y="29.741" width="4.519" height="4.519" style="fill:rgb(10,175,115);"/>
        <rect x="12.796" y="35.389" width="4.519" height="4.519" style="fill:rgb(10,175,115);"/>
        <rect x="7.148" y="35.389" width="4.519" height="4.519" style="fill:rgb(10,175,115);"/>
        <rect x="41.037" y="35.389" width="4.519" height="4.519" style="fill:rgb(10,175,115);"/>
        <rect x="46.685" y="35.389" width="4.519" height="4.519" style="fill:rgb(10,175,115);"/>
        <rect x="12.796" y="41.037" width="4.519" height="4.519" style="fill:rgb(10,175,115);"/>
        <rect x="7.148" y="41.037" width="4.519" height="4.519" style="fill:rgb(10,175,115);"/>
        <rect x="41.037" y="41.037" width="4.519" height="4.519" style="fill:rgb(10,175,115);"/>
        <rect x="46.685" y="41.037" width="4.519" height="4.519" style="fill:rgb(10,175,115);"/>
        <rect x="12.796" y="46.685" width="4.519" height="4.519" style="fill:rgb(10,175,115);"/>
        <rect x="7.148" y="46.685" width="4.519" height="4.519" style="fill:rgb(10,175,115);"/>
        <rect x="41.037" y="46.685" width="4.519" height="4.519" style="fill:rgb(10,175,115);"/>
        <rect x="46.685" y="46.685" width="4.519" height="4.519" style="fill:rgb(10,175,115);"/>
        <rect x="12.796" y="52.333" width="4.519" height="4.519" style="fill:rgb(10,175,115);"/>
        <rect x="7.148" y="52.333" width="4.519" height="4.519" style="fill:rgb(10,175,115);"/>
        <rect x="41.037" y="52.333" width="4.519" height="4.519" style="fill:rgb(10,175,115);"/>
        <rect x="46.685" y="52.333" width="4.519" height="4.519" style="fill:rgb(10,175,115);"/>
        <rect x="52.333" y="52.333" width="4.519" height="4.519" style="fill:rgb(10,175,115);"/>
        <rect x="46.685" y="57.981" width="4.519" height="4.519" style="fill:rgb(10,175,115);"/>
        <rect x="52.333" y="57.981" width="4.519" height="4.519" style="fill:rgb(10,175,115);"/>
        <rect x="12.796" y="57.981" width="4.519" height="4.519" style="fill:rgb(10,175,115);"/>
    </g>
</svg>
